<?xml version="1.0" encoding="UTF-8" standalone="no" ?>
<!DOCTYPE svg PUBLIC "-//W3C//DTD SVG 1.1//EN" "http://www.w3.org/Graphics/SVG/1.1/DTD/svg11.dtd">
<svg xmlns="http://www.w3.org/2000/svg" xmlns:xlink="http://www.w3.org/1999/xlink" version="1.1" width="1280" height="1024" viewBox="0 0 1280 1024" xml:space="preserve">
<desc>Created with Fabric.js 3.6.3</desc>
<defs>
</defs>
<g transform="matrix(1.9692780337941629 0 0 1.9692780337941629 640.0153846153846 512.012312418764)" id="background-logo"  >
<rect style="stroke: none; stroke-width: 1; stroke-dasharray: none; stroke-linecap: butt; stroke-dashoffset: 0; stroke-linejoin: miter; stroke-miterlimit: 10; fill: rgb(255,255,255); fill-rule: nonzero; opacity: 1;"  paint-order="stroke"  x="-325" y="-260" rx="0" ry="0" width="650" height="520" />
</g>
<g transform="matrix(1.9692780337941629 0 0 1.9692780337941629 640.0078668964904 401.0556161207609)" id="logo-logo"  >
<g style=""  paint-order="stroke"   >
		<g transform="matrix(0.369 0 0 -0.369 -104.45018249999993 -19.490155000000016)"  >
<path style="stroke: none; stroke-width: 1; stroke-dasharray: none; stroke-linecap: butt; stroke-dashoffset: 0; stroke-linejoin: miter; stroke-miterlimit: 10; fill: rgb(246,184,11); fill-rule: nonzero; opacity: 1;"  paint-order="stroke"  transform=" translate(-1333.52, -1549.115)" d="m 1189.31 1310.96 l 182.54 58.43 l 105.88 417.88 l -182.55 -58.41 l -105.87 -417.9" stroke-linecap="round" />
</g>
		<g transform="matrix(0.369 0 0 -0.369 95.93181750000008 -33.75915499999991)"  >
<path style="stroke: none; stroke-width: 1; stroke-dasharray: none; stroke-linecap: butt; stroke-dashoffset: 0; stroke-linejoin: miter; stroke-miterlimit: 10; fill: rgb(90,81,172); fill-rule: nonzero; opacity: 1;"  paint-order="stroke"  transform=" translate(-1876.0549999999998, -1587.75)" d="m 1708.76 1791.59 l 182.53 58.43 l 152.06 -449.79 l -178.6 -74.75 l -155.99 466.11" stroke-linecap="round" />
</g>
		<g transform="matrix(0.369 0 0 -0.369 -19.477182499999913 11.58484500000003)"  >
<path style="stroke: none; stroke-width: 1; stroke-dasharray: none; stroke-linecap: butt; stroke-dashoffset: 0; stroke-linejoin: miter; stroke-miterlimit: 10; fill: rgb(241,238,26); fill-rule: nonzero; opacity: 1;"  paint-order="stroke"  transform=" translate(-1563.585, -1464.98)" d="m 1400.28 1481.59 l 77.45 305.68 l 249.16 -586.18 l -182.55 -58.4 l -144.06 338.9" stroke-linecap="round" />
</g>
		<g transform="matrix(0.369 0 0 -0.369 -84.89918249999988 -51.00015500000001)"  >
<path style="stroke: none; stroke-width: 1; stroke-dasharray: none; stroke-linecap: butt; stroke-dashoffset: 0; stroke-linejoin: miter; stroke-miterlimit: 10; fill: rgb(237,170,15); fill-rule: nonzero; opacity: 1;"  paint-order="stroke"  transform=" translate(-1386.455, -1634.4299999999998)" d="m 1477.73 1787.27 l -182.55 -58.41 l 105.1 -247.27 z" stroke-linecap="round" />
</g>
		<g transform="matrix(0.369 0 0 -0.369 37.48681750000003 -0.003155000000049313)"  >
<path style="stroke: none; stroke-width: 1; stroke-dasharray: none; stroke-linecap: butt; stroke-dashoffset: 0; stroke-linejoin: miter; stroke-miterlimit: 10; fill: rgb(81,126,201); fill-rule: nonzero; opacity: 1;"  paint-order="stroke"  transform=" translate(-1717.815, -1496.355)" d="m 1544.34 1142.69 l 182.55 58.4 l 164.4 648.93 l -182.53 -58.43 l -164.42 -648.9" stroke-linecap="round" />
</g>
		<g transform="matrix(0.369 0 0 -0.369 7.126817500000016 74.17184500000008)"  >
<path style="stroke: none; stroke-width: 1; stroke-dasharray: none; stroke-linecap: butt; stroke-dashoffset: 0; stroke-linejoin: miter; stroke-miterlimit: 10; fill: rgb(93,197,133); fill-rule: nonzero; opacity: 1;"  paint-order="stroke"  transform=" translate(-1635.6149999999998, -1295.525)" d="m 1544.34 1142.69 l 182.55 58.4 l -105.1 247.27 z" stroke-linecap="round" />
</g>
		<g transform="matrix(0.369 0 0 -0.369 67.84981750000009 -67.15715500000005)"  >
<path style="stroke: none; stroke-width: 1; stroke-dasharray: none; stroke-linecap: butt; stroke-dashoffset: 0; stroke-linejoin: miter; stroke-miterlimit: 10; fill: rgb(44,55,140); fill-rule: nonzero; opacity: 1;"  paint-order="stroke"  transform=" translate(-1800.025, -1678.175)" d="m 1891.29 1850.02 l -182.53 -58.43 l 95.45 -285.26 z" stroke-linecap="round" />
</g>
</g>
</g>
<g transform="matrix(1.9692780337941629 0 0 1.9692780337941629 637.7113293158455 738.8391650109739)" id="text-logo-path"  >
<linearGradient id="SVGID_19_22_23_24_25_26_39_40_41_42_43_44_45_46_47_48_49_50_51_52_53_54_55_56_57_58_59_60_61_3_3_3_4_97961" gradientUnits="userSpaceOnUse" gradientTransform="matrix(1 0 0 1 0.8100000000000023 -33.7)"  x1="0" y1="0" x2="0" y2="51">
<stop offset="0%" style="stop-color:rgb(248,77,158);stop-opacity: 1"/>
<stop offset="100%" style="stop-color:rgb(255,116,117);stop-opacity: 1"/>
</linearGradient>
<path style="stroke: rgb(45,55,142); stroke-width: 0; stroke-dasharray: none; stroke-linecap: butt; stroke-dashoffset: 0; stroke-linejoin: miter; stroke-miterlimit: 10; fill: url(#SVGID_19_22_23_24_25_26_39_40_41_42_43_44_45_46_47_48_49_50_51_52_53_54_55_56_57_58_59_60_61_3_3_3_4_97961); fill-rule: nonzero; opacity: 1;"  paint-order="stroke"  transform=" translate(-133.83, 16.580000000000002)" d="M 22.09 0 L 16.74 0 L 13.63 -17.37 L 10.3 0 L 5.08 0 L 0.81 -23.71 L 4.63 -23.71 L 7.69 -2.34 L 11.47 -20.7 L 15.93 -20.7 L 19.48 -2.34 L 22.54 -23.71 L 26.19 -23.71 L 22.09 0 Z M 34.52 -10.53 Q 34.65 -6.61 36.56 -4.63 Q 38.48 -2.65 41.4 -2.65 L 41.4 -2.65 Q 43.16 -2.65 44.62 -3.17 Q 46.08 -3.69 47.75 -4.77 L 47.75 -4.77 L 49.5 -2.25 Q 47.84 -0.94 45.7 -0.22 Q 43.56 0.49 41.4 0.49 L 41.4 0.49 Q 36.27 0.49 33.41 -2.86 Q 30.55 -6.21 30.55 -11.83 L 30.55 -11.83 Q 30.55 -15.39 31.81 -18.2 Q 33.08 -21.02 35.41 -22.61 Q 37.75 -24.21 40.86 -24.21 L 40.86 -24.21 Q 45.36 -24.21 47.95 -21.08 Q 50.53 -17.95 50.53 -12.55 L 50.53 -12.55 Q 50.53 -11.52 50.45 -10.53 L 50.45 -10.53 L 34.52 -10.53 Z M 40.91 -21.11 Q 38.16 -21.11 36.45 -19.15 Q 34.74 -17.19 34.52 -13.41 L 34.52 -13.41 L 46.84 -13.41 Q 46.8 -17.14 45.22 -19.13 Q 43.65 -21.11 40.91 -21.11 L 40.91 -21.11 Z M 62.28 -20.61 Q 65.03 -24.21 69.08 -24.21 L 69.08 -24.21 Q 73.62 -24.21 75.78 -20.97 Q 77.94 -17.73 77.94 -11.88 L 77.94 -11.88 Q 77.94 -6.3 75.47 -2.9 Q 72.99 0.49 68.53 0.49 L 68.53 0.49 Q 64.44 0.49 62.1 -2.48 L 62.1 -2.48 L 61.83 0 L 58.5 0 L 58.5 -33.25 L 62.28 -33.7 L 62.28 -20.61 Z M 67.68 -2.56 Q 70.65 -2.56 72.25 -4.91 Q 73.84 -7.25 73.84 -11.88 L 73.84 -11.88 Q 73.84 -16.47 72.43 -18.81 Q 71.01 -21.15 68.22 -21.15 L 68.22 -21.15 Q 66.42 -21.15 64.91 -20.07 Q 63.41 -18.99 62.28 -17.37 L 62.28 -17.37 L 62.28 -5.63 Q 63.23 -4.18 64.62 -3.38 Q 66.02 -2.56 67.68 -2.56 L 67.68 -2.56 Z M 86.63 -12.46 L 86.63 -15.71 L 102.38 -15.71 L 102.38 -12.46 L 86.63 -12.46 Z M 128.12 -24.21 Q 130.14 -24.21 131.42 -22.79 Q 132.7 -21.38 132.7 -17.64 L 132.7 -17.64 L 132.7 0 L 129.24 0 L 129.24 -17.01 Q 129.24 -19.48 128.93 -20.36 Q 128.61 -21.24 127.39 -21.24 L 127.39 -21.24 Q 125.1 -21.24 123.25 -18.4 L 123.25 -18.4 L 123.25 0 L 119.75 0 L 119.75 -17.01 Q 119.75 -19.48 119.43 -20.36 Q 119.11 -21.24 117.9 -21.24 L 117.9 -21.24 Q 115.61 -21.24 113.76 -18.4 L 113.76 -18.4 L 113.76 0 L 110.3 0 L 110.3 -23.71 L 113.22 -23.71 L 113.49 -20.93 Q 114.57 -22.5 115.76 -23.36 Q 116.95 -24.21 118.62 -24.21 L 118.62 -24.21 Q 121.95 -24.21 122.89 -21.06 L 122.89 -21.06 Q 123.97 -22.59 125.19 -23.4 Q 126.41 -24.21 128.12 -24.21 L 128.12 -24.21 Z M 156.51 -5.17 Q 156.51 -3.78 156.96 -3.13 Q 157.41 -2.48 158.44 -2.16 L 158.44 -2.16 L 157.5 0.54 Q 154.03 0.09 153.18 -2.83 L 153.18 -2.83 Q 151.92 -1.21 150.01 -0.36 Q 148.09 0.49 145.75 0.49 L 145.75 0.49 Q 142.2 0.49 140.15 -1.48 Q 138.1 -3.46 138.1 -6.79 L 138.1 -6.79 Q 138.1 -10.44 140.96 -12.42 Q 143.82 -14.4 149.18 -14.4 L 149.18 -14.4 L 152.69 -14.4 L 152.69 -16.34 Q 152.69 -18.86 151.25 -19.96 Q 149.81 -21.06 147.06 -21.06 L 147.06 -21.06 Q 144.36 -21.06 140.9 -19.84 L 140.9 -19.84 L 139.86 -22.72 Q 144.04 -24.21 147.65 -24.21 L 147.65 -24.21 Q 151.97 -24.21 154.24 -22.18 Q 156.51 -20.16 156.51 -16.56 L 156.51 -16.56 L 156.51 -5.17 Z M 146.7 -2.34 Q 148.46 -2.34 150.05 -3.24 Q 151.65 -4.14 152.69 -5.71 L 152.69 -5.71 L 152.69 -11.79 L 149.26 -11.79 Q 145.49 -11.79 143.82 -10.53 Q 142.16 -9.27 142.16 -6.84 L 142.16 -6.84 Q 142.16 -2.34 146.7 -2.34 L 146.7 -2.34 Z M 182.52 -24.21 Q 183.96 -24.21 185.85 -23.71 L 185.85 -23.71 L 185.31 -15.66 L 182.25 -15.66 L 182.25 -20.75 L 182.03 -20.75 Q 176.53 -20.75 174.24 -12.91 L 174.24 -12.91 L 174.24 -2.92 L 179.06 -2.92 L 179.06 0 L 166.72 0 L 166.72 -2.92 L 170.46 -2.92 L 170.46 -20.79 L 166.72 -20.79 L 166.72 -23.71 L 173.29 -23.71 L 174.01 -18.09 Q 175.46 -21.15 177.46 -22.68 Q 179.46 -24.21 182.52 -24.21 L 182.52 -24.21 Z M 197.55 -33.7 L 197.55 0 L 193.77 0 L 193.77 -33.25 L 197.55 -33.7 Z M 213.34 -23.71 L 202.72 -13 L 214.6 0 L 209.61 0 L 197.96 -12.96 L 208.49 -23.71 L 213.34 -23.71 Z M 223.51 -10.53 Q 223.65 -6.61 225.56 -4.63 Q 227.47 -2.65 230.4 -2.65 L 230.4 -2.65 Q 232.16 -2.65 233.62 -3.17 Q 235.08 -3.69 236.75 -4.77 L 236.75 -4.77 L 238.5 -2.25 Q 236.84 -0.94 234.7 -0.22 Q 232.56 0.49 230.4 0.49 L 230.4 0.49 Q 225.27 0.49 222.41 -2.86 Q 219.56 -6.21 219.56 -11.83 L 219.56 -11.83 Q 219.56 -15.39 220.81 -18.2 Q 222.07 -21.02 224.41 -22.61 Q 226.75 -24.21 229.86 -24.21 L 229.86 -24.21 Q 234.36 -24.21 236.95 -21.08 Q 239.53 -17.95 239.53 -12.55 L 239.53 -12.55 Q 239.53 -11.52 239.44 -10.53 L 239.44 -10.53 L 223.51 -10.53 Z M 229.91 -21.11 Q 227.16 -21.11 225.45 -19.15 Q 223.74 -17.19 223.51 -13.41 L 223.51 -13.41 L 235.84 -13.41 Q 235.8 -17.14 234.22 -19.13 Q 232.65 -21.11 229.91 -21.11 L 229.91 -21.11 Z M 263.52 -24.21 Q 264.96 -24.21 266.85 -23.71 L 266.85 -23.71 L 266.31 -15.66 L 263.25 -15.66 L 263.25 -20.75 L 263.02 -20.75 Q 257.54 -20.75 255.24 -12.91 L 255.24 -12.91 L 255.24 -2.92 L 260.06 -2.92 L 260.06 0 L 247.72 0 L 247.72 -2.92 L 251.46 -2.92 L 251.46 -20.79 L 247.72 -20.79 L 247.72 -23.71 L 254.29 -23.71 L 255.01 -18.09 Q 256.45 -21.15 258.46 -22.68 Q 260.46 -24.21 263.52 -24.21 L 263.52 -24.21 Z" stroke-linecap="round" />
</g>
</svg>