<?xml version="1.0" encoding="UTF-8" standalone="no" ?>
<!DOCTYPE svg PUBLIC "-//W3C//DTD SVG 1.1//EN" "http://www.w3.org/Graphics/SVG/1.1/DTD/svg11.dtd">
<svg xmlns="http://www.w3.org/2000/svg" xmlns:xlink="http://www.w3.org/1999/xlink" version="1.1" width="1280" height="1024" viewBox="0 0 1280 1024" xml:space="preserve">
<desc>Created with Fabric.js 3.6.3</desc>
<defs>
</defs>
<g transform="matrix(1.9692780337941629 0 0 1.9692780337941629 640.0153846153846 512.012312418764)" id="background-logo"  >
<rect style="stroke: none; stroke-width: 1; stroke-dasharray: none; stroke-linecap: butt; stroke-dashoffset: 0; stroke-linejoin: miter; stroke-miterlimit: 10; fill: rgb(255,255,255); fill-rule: nonzero; opacity: 1;"  paint-order="stroke"  x="-325" y="-260" rx="0" ry="0" width="650" height="520" />
</g>
<g transform="matrix(1.9692780337941629 0 0 1.9692780337941629 640.0078668964904 401.0556161207609)" id="logo-logo"  >
<g style=""  paint-order="stroke"   >
		<g transform="matrix(0.369 0 0 -0.369 -104.45018249999993 -19.490155000000016)"  >
<path style="stroke: none; stroke-width: 1; stroke-dasharray: none; stroke-linecap: butt; stroke-dashoffset: 0; stroke-linejoin: miter; stroke-miterlimit: 10; fill: rgb(246,184,11); fill-rule: nonzero; opacity: 1;"  paint-order="stroke"  transform=" translate(-1333.52, -1549.115)" d="m 1189.31 1310.96 l 182.54 58.43 l 105.88 417.88 l -182.55 -58.41 l -105.87 -417.9" stroke-linecap="round" />
</g>
		<g transform="matrix(0.369 0 0 -0.369 95.93181750000008 -33.75915499999991)"  >
<path style="stroke: none; stroke-width: 1; stroke-dasharray: none; stroke-linecap: butt; stroke-dashoffset: 0; stroke-linejoin: miter; stroke-miterlimit: 10; fill: rgb(90,81,172); fill-rule: nonzero; opacity: 1;"  paint-order="stroke"  transform=" translate(-1876.0549999999998, -1587.75)" d="m 1708.76 1791.59 l 182.53 58.43 l 152.06 -449.79 l -178.6 -74.75 l -155.99 466.11" stroke-linecap="round" />
</g>
		<g transform="matrix(0.369 0 0 -0.369 -19.477182499999913 11.58484500000003)"  >
<path style="stroke: none; stroke-width: 1; stroke-dasharray: none; stroke-linecap: butt; stroke-dashoffset: 0; stroke-linejoin: miter; stroke-miterlimit: 10; fill: rgb(241,238,26); fill-rule: nonzero; opacity: 1;"  paint-order="stroke"  transform=" translate(-1563.585, -1464.98)" d="m 1400.28 1481.59 l 77.45 305.68 l 249.16 -586.18 l -182.55 -58.4 l -144.06 338.9" stroke-linecap="round" />
</g>
		<g transform="matrix(0.369 0 0 -0.369 -84.89918249999988 -51.00015500000001)"  >
<path style="stroke: none; stroke-width: 1; stroke-dasharray: none; stroke-linecap: butt; stroke-dashoffset: 0; stroke-linejoin: miter; stroke-miterlimit: 10; fill: rgb(237,170,15); fill-rule: nonzero; opacity: 1;"  paint-order="stroke"  transform=" translate(-1386.455, -1634.4299999999998)" d="m 1477.73 1787.27 l -182.55 -58.41 l 105.1 -247.27 z" stroke-linecap="round" />
</g>
		<g transform="matrix(0.369 0 0 -0.369 37.48681750000003 -0.003155000000049313)"  >
<path style="stroke: none; stroke-width: 1; stroke-dasharray: none; stroke-linecap: butt; stroke-dashoffset: 0; stroke-linejoin: miter; stroke-miterlimit: 10; fill: rgb(81,126,201); fill-rule: nonzero; opacity: 1;"  paint-order="stroke"  transform=" translate(-1717.815, -1496.355)" d="m 1544.34 1142.69 l 182.55 58.4 l 164.4 648.93 l -182.53 -58.43 l -164.42 -648.9" stroke-linecap="round" />
</g>
		<g transform="matrix(0.369 0 0 -0.369 7.126817500000016 74.17184500000008)"  >
<path style="stroke: none; stroke-width: 1; stroke-dasharray: none; stroke-linecap: butt; stroke-dashoffset: 0; stroke-linejoin: miter; stroke-miterlimit: 10; fill: rgb(93,197,133); fill-rule: nonzero; opacity: 1;"  paint-order="stroke"  transform=" translate(-1635.6149999999998, -1295.525)" d="m 1544.34 1142.69 l 182.55 58.4 l -105.1 247.27 z" stroke-linecap="round" />
</g>
		<g transform="matrix(0.369 0 0 -0.369 67.84981750000009 -67.15715500000005)"  >
<path style="stroke: none; stroke-width: 1; stroke-dasharray: none; stroke-linecap: butt; stroke-dashoffset: 0; stroke-linejoin: miter; stroke-miterlimit: 10; fill: rgb(44,55,140); fill-rule: nonzero; opacity: 1;"  paint-order="stroke"  transform=" translate(-1800.025, -1678.175)" d="m 1891.29 1850.02 l -182.53 -58.43 l 95.45 -285.26 z" stroke-linecap="round" />
</g>
</g>
</g>
<g transform="matrix(1.9692780337941629 0 0 1.9692780337941629 637.5577256292096 752.774883487735)" id="text-logo-path"  >
<linearGradient id="SVGID_19_22_23_24_25_26_39_40_41_42_43_44_45_46_47_48_49_50_51_52_53_54_55_56_57_58_59_60_61_3_3_348814" gradientUnits="userSpaceOnUse" gradientTransform="matrix(1 0 0 1 0.8600000000000136 -35.95)"  x1="0" y1="0" x2="0" y2="54">
<stop offset="0%" style="stop-color:rgb(248,77,158);stop-opacity: 1"/>
<stop offset="100%" style="stop-color:rgb(255,116,117);stop-opacity: 1"/>
</linearGradient>
<path style="stroke: rgb(45,55,142); stroke-width: 0; stroke-dasharray: none; stroke-linecap: butt; stroke-dashoffset: 0; stroke-linejoin: miter; stroke-miterlimit: 10; fill: url(#SVGID_19_22_23_24_25_26_39_40_41_42_43_44_45_46_47_48_49_50_51_52_53_54_55_56_57_58_59_60_61_3_3_348814); fill-rule: nonzero; opacity: 1;"  paint-order="stroke"  transform=" translate(-142.75, 17.685000000000002)" d="M 23.57 0 L 17.86 0 L 14.54 -18.53 L 10.99 0 L 5.42 0 L 0.86 -25.3 L 4.94 -25.3 L 8.21 -2.5 L 12.24 -22.08 L 16.99 -22.08 L 20.78 -2.5 L 24.05 -25.3 L 27.94 -25.3 L 23.57 0 Z M 36.82 -11.23 Q 36.96 -7.06 39 -4.94 Q 41.04 -2.83 44.16 -2.83 L 44.16 -2.83 Q 46.03 -2.83 47.59 -3.38 Q 49.15 -3.94 50.93 -5.09 L 50.93 -5.09 L 52.8 -2.4 Q 51.02 -1.01 48.74 -0.24 Q 46.46 0.53 44.16 0.53 L 44.16 0.53 Q 38.69 0.53 35.64 -3.05 Q 32.59 -6.62 32.59 -12.62 L 32.59 -12.62 Q 32.59 -16.42 33.94 -19.42 Q 35.28 -22.42 37.78 -24.12 Q 40.27 -25.82 43.58 -25.82 L 43.58 -25.82 Q 48.38 -25.82 51.14 -22.49 Q 53.9 -19.15 53.9 -13.39 L 53.9 -13.39 Q 53.9 -12.29 53.81 -11.23 L 53.81 -11.23 L 36.82 -11.23 Z M 43.63 -22.51 Q 40.7 -22.51 38.88 -20.42 Q 37.06 -18.34 36.82 -14.3 L 36.82 -14.3 L 49.97 -14.3 Q 49.92 -18.29 48.24 -20.4 Q 46.56 -22.51 43.63 -22.51 L 43.63 -22.51 Z M 66.43 -21.98 Q 69.36 -25.82 73.68 -25.82 L 73.68 -25.82 Q 78.53 -25.82 80.83 -22.37 Q 83.14 -18.91 83.14 -12.67 L 83.14 -12.67 Q 83.14 -6.72 80.5 -3.1 Q 77.86 0.53 73.1 0.53 L 73.1 0.53 Q 68.74 0.53 66.24 -2.64 L 66.24 -2.64 L 65.95 0 L 62.4 0 L 62.4 -35.47 L 66.43 -35.95 L 66.43 -21.98 Z M 72.19 -2.74 Q 75.36 -2.74 77.06 -5.23 Q 78.77 -7.73 78.77 -12.67 L 78.77 -12.67 Q 78.77 -17.57 77.26 -20.06 Q 75.74 -22.56 72.77 -22.56 L 72.77 -22.56 Q 70.85 -22.56 69.24 -21.41 Q 67.63 -20.26 66.43 -18.53 L 66.43 -18.53 L 66.43 -6 Q 67.44 -4.46 68.93 -3.6 Q 70.42 -2.74 72.19 -2.74 L 72.19 -2.74 Z M 92.4 -13.3 L 92.4 -16.75 L 109.2 -16.75 L 109.2 -13.3 L 92.4 -13.3 Z M 136.66 -25.82 Q 138.82 -25.82 140.18 -24.31 Q 141.55 -22.8 141.55 -18.82 L 141.55 -18.82 L 141.55 0 L 137.86 0 L 137.86 -18.14 Q 137.86 -20.78 137.52 -21.72 Q 137.18 -22.66 135.89 -22.66 L 135.89 -22.66 Q 133.44 -22.66 131.47 -19.63 L 131.47 -19.63 L 131.47 0 L 127.73 0 L 127.73 -18.14 Q 127.73 -20.78 127.39 -21.72 Q 127.06 -22.66 125.76 -22.66 L 125.76 -22.66 Q 123.31 -22.66 121.34 -19.63 L 121.34 -19.63 L 121.34 0 L 117.65 0 L 117.65 -25.3 L 120.77 -25.3 L 121.06 -22.32 Q 122.21 -24 123.48 -24.91 Q 124.75 -25.82 126.53 -25.82 L 126.53 -25.82 Q 130.08 -25.82 131.09 -22.46 L 131.09 -22.46 Q 132.24 -24.1 133.54 -24.96 Q 134.83 -25.82 136.66 -25.82 L 136.66 -25.82 Z M 166.94 -5.52 Q 166.94 -4.03 167.42 -3.34 Q 167.9 -2.64 169.01 -2.3 L 169.01 -2.3 L 168 0.58 Q 164.3 0.1 163.39 -3.02 L 163.39 -3.02 Q 162.05 -1.3 160.01 -0.38 Q 157.97 0.53 155.47 0.53 L 155.47 0.53 Q 151.68 0.53 149.5 -1.58 Q 147.31 -3.7 147.31 -7.25 L 147.31 -7.25 Q 147.31 -11.14 150.36 -13.25 Q 153.41 -15.36 159.12 -15.36 L 159.12 -15.36 L 162.86 -15.36 L 162.86 -17.42 Q 162.86 -20.11 161.33 -21.29 Q 159.79 -22.46 156.86 -22.46 L 156.86 -22.46 Q 153.98 -22.46 150.29 -21.17 L 150.29 -21.17 L 149.18 -24.24 Q 153.65 -25.82 157.49 -25.82 L 157.49 -25.82 Q 162.1 -25.82 164.52 -23.66 Q 166.94 -21.5 166.94 -17.66 L 166.94 -17.66 L 166.94 -5.52 Z M 156.48 -2.5 Q 158.35 -2.5 160.06 -3.46 Q 161.76 -4.42 162.86 -6.1 L 162.86 -6.1 L 162.86 -12.58 L 159.22 -12.58 Q 155.18 -12.58 153.41 -11.23 Q 151.63 -9.89 151.63 -7.3 L 151.63 -7.3 Q 151.63 -2.5 156.48 -2.5 L 156.48 -2.5 Z M 194.69 -25.82 Q 196.22 -25.82 198.24 -25.3 L 198.24 -25.3 L 197.66 -16.7 L 194.4 -16.7 L 194.4 -22.13 L 194.16 -22.13 Q 188.3 -22.13 185.86 -13.78 L 185.86 -13.78 L 185.86 -3.12 L 190.99 -3.12 L 190.99 0 L 177.84 0 L 177.84 -3.12 L 181.82 -3.12 L 181.82 -22.18 L 177.84 -22.18 L 177.84 -25.3 L 184.85 -25.3 L 185.62 -19.3 Q 187.15 -22.56 189.29 -24.19 Q 191.42 -25.82 194.69 -25.82 L 194.69 -25.82 Z M 210.72 -35.95 L 210.72 0 L 206.69 0 L 206.69 -35.47 L 210.72 -35.95 Z M 227.57 -25.3 L 216.24 -13.87 L 228.91 0 L 223.58 0 L 211.15 -13.82 L 222.38 -25.3 L 227.57 -25.3 Z M 238.42 -11.23 Q 238.56 -7.06 240.6 -4.94 Q 242.64 -2.83 245.76 -2.83 L 245.76 -2.83 Q 247.63 -2.83 249.19 -3.38 Q 250.75 -3.94 252.53 -5.09 L 252.53 -5.09 L 254.4 -2.4 Q 252.62 -1.01 250.34 -0.24 Q 248.06 0.53 245.76 0.53 L 245.76 0.53 Q 240.29 0.53 237.24 -3.05 Q 234.19 -6.62 234.19 -12.62 L 234.19 -12.62 Q 234.19 -16.42 235.54 -19.42 Q 236.88 -22.42 239.38 -24.12 Q 241.87 -25.82 245.18 -25.82 L 245.18 -25.82 Q 249.98 -25.82 252.74 -22.49 Q 255.5 -19.15 255.5 -13.39 L 255.5 -13.39 Q 255.5 -12.29 255.41 -11.23 L 255.41 -11.23 L 238.42 -11.23 Z M 245.23 -22.51 Q 242.3 -22.51 240.48 -20.42 Q 238.66 -18.34 238.42 -14.3 L 238.42 -14.3 L 251.57 -14.3 Q 251.52 -18.29 249.84 -20.4 Q 248.16 -22.51 245.23 -22.51 L 245.23 -22.51 Z M 281.09 -25.82 Q 282.62 -25.82 284.64 -25.3 L 284.64 -25.3 L 284.06 -16.7 L 280.8 -16.7 L 280.8 -22.13 L 280.56 -22.13 Q 274.7 -22.13 272.26 -13.78 L 272.26 -13.78 L 272.26 -3.12 L 277.39 -3.12 L 277.39 0 L 264.24 0 L 264.24 -3.12 L 268.22 -3.12 L 268.22 -22.18 L 264.24 -22.18 L 264.24 -25.3 L 271.25 -25.3 L 272.02 -19.3 Q 273.55 -22.56 275.69 -24.19 Q 277.82 -25.82 281.09 -25.82 L 281.09 -25.82 Z" stroke-linecap="round" />
</g>
</svg>